<svg width="49" height="49" viewBox="0 0 49 49" fill="none" xmlns="http://www.w3.org/2000/svg">
<path d="M25.7588 35.6402C25.4035 36.0287 24.9015 36.25 24.375 36.25C23.8485 36.25 23.3465 36.0287 22.9913 35.6402L12.9912 24.7027C12.2925 23.9385 12.3456 22.7525 13.1098 22.0537C13.8741 21.355 15.0601 21.408 15.7588 22.1723L22.5 29.5455V1.875C22.5 0.839475 23.3395 0 24.375 0C25.4105 0 26.25 0.839475 26.25 1.875V29.5455L32.9913 22.1723C33.69 21.408 34.876 21.355 35.6403 22.0537C36.4045 22.7525 36.4575 23.9385 35.7588 24.7027L25.7588 35.6402Z" fill="#FAE499"/>
<path d="M3.75 31.875C3.75 30.8395 2.91055 30 1.875 30C0.839476 30 1.30988e-06 30.8395 1.30988e-06 31.875V32.0123C-4.86901e-05 35.4313 -9.88692e-05 38.187 0.291301 40.3545C0.593851 42.6047 1.24108 44.4992 2.74588 46.004C4.25068 47.509 6.14535 48.1562 8.39563 48.4587C10.5631 48.75 13.3189 48.75 16.7378 48.75H32.0123C35.4313 48.75 38.187 48.75 40.3545 48.4587C42.6047 48.1562 44.4992 47.509 46.0042 46.004C47.509 44.4992 48.1562 42.6047 48.4587 40.3545C48.75 38.187 48.75 35.4313 48.75 32.0123V31.875C48.75 30.8395 47.9105 30 46.875 30C45.8395 30 45 30.8395 45 31.875C45 35.4635 44.996 37.9663 44.7423 39.8548C44.4955 41.6893 44.0445 42.6605 43.3525 43.3525C42.6605 44.0445 41.6893 44.4955 39.8548 44.7423C37.9663 44.996 35.4635 45 31.875 45H16.875C13.2865 45 10.7837 44.996 8.8953 44.7423C7.06088 44.4955 6.08943 44.0445 5.39753 43.3525C4.70563 42.6605 4.2545 41.6893 4.00788 39.8548C3.75398 37.9663 3.75 35.4635 3.75 31.875Z" fill="#FAE499"/>
</svg>
