<svg width="45" height="36" viewBox="0 0 45 36" fill="none" xmlns="http://www.w3.org/2000/svg">
<path d="M41.952 16H42.5C43.8807 16 45 14.8807 45 13.5C45 12.1193 43.8807 11 42.5 11H2.5C1.1193 11 0 12.1193 0 13.5C0 14.8807 1.1193 16 2.5 16H3.04805C4.19523 16 5.19518 16.7807 5.47343 17.8937L9.05318 32.2127C9.60963 34.4385 11.6096 36 13.9039 36H31.096C33.3905 36 35.3903 34.4385 35.9468 32.2127L39.5265 17.8937C39.8048 16.7807 40.8047 16 41.952 16Z" fill="#EC5564"/>
<path d="M16 2L12 8M30 2L34 8" stroke="#FAE499" stroke-width="2.5" stroke-linecap="round"/>
<path d="M19 27C20 26 21 25 23 25C25 25 26 26 27 27" stroke="#FAE499" stroke-width="2" stroke-linecap="round"/>
<path d="M27.5 22C28.3284 22 29 21.3284 29 20.5C29 19.6716 28.3284 19 27.5 19C26.6716 19 26 19.6716 26 20.5C26 21.3284 26.6716 22 27.5 22Z" fill="#FAE499"/>
<path d="M18.5 22C19.3284 22 20 21.3284 20 20.5C20 19.6716 19.3284 19 18.5 19C17.6716 19 17 19.6716 17 20.5C17 21.3284 17.6716 22 18.5 22Z" fill="#FAE499"/>
</svg>
