<?xml version="1.0" encoding="UTF-8"?>
<svg id="Layer_1" data-name="Layer 1" xmlns="http://www.w3.org/2000/svg" viewBox="0 0 177.06 98.02">
  <defs>
    <style>
      .cls-1 {
        fill: none;
        stroke: #000;
        stroke-miterlimit: 10;
      }

      .cls-2, .cls-3, .cls-4 {
        stroke-width: 0px;
      }

      .cls-3 {
        fill: #c274a8;
      }

      .cls-4 {
        fill: #fae499;
      }
    </style>
  </defs>
  <path class="cls-4" d="m39.7,59.22v-12.48l-21.78-.23.23-46.51C8.88,26.58,4.45,37.54,2.26,41.75c-.28.55-1.25,2.37-1.82,4.99-.43,1.98-1.13,6.8,1.13,12.03,1.77,4.08,4.48,6.38,6.58,8.17,3.15,2.68,6.26,4.16,8.4,4.99h29.95v7.94h-14.52v18.15h113.22v-17.47h-12.71v-8.62h27.46c.56-.13,1.35-.34,2.27-.68,3.92-1.47,6.31-3.95,7.71-5.45,1.54-1.64,5.65-6,6.81-12.71.68-3.94.09-7.21-.45-9.53-3.35-14.23-15.92-39.16-17.47-42.2l.23,45.38h-18.83v12.48l-8.3.1-.09-2.14c-.26-3.36-.89-7.94-2.5-13.16-1.07-3.46-3.36-11.09-9.53-18.61-3.22-3.92-6.67-6.81-11.8-11.12-2.8-2.35-5.8-4.67-11.8-9.3-2.71-2.1-4.97-3.82-6.51-4.99-1.53,1.3-3.97,3.32-7.08,5.7-4.6,3.53-6.74,4.84-10.78,7.95-2.48,1.91-5.65,4.35-8.47,7.06-3.15,3.02-11.22,10.94-14.62,23.6-.76,2.84-1.66,7.28-1.54,12.96v1.92s-7.5.03-7.5.03Z"/>
  <polygon class="cls-1" points="145.21 80.55 46.51 79.96 31.99 79.87 145.21 80.55"/>
  <rect class="cls-3" x="31.33" y="79.3" width="114.39" height="19.55"/>
  <rect class="cls-2" x="86.02" y="23.79" width="7.04" height="55.51"/>
  <circle class="cls-2" cx="44.53" cy="88.44" r="4.44"/>
  <circle class="cls-2" cx="66.56" cy="88.44" r="4.44"/>
  <circle class="cls-2" cx="89.54" cy="88.44" r="4.44"/>
  <circle class="cls-2" cx="112.09" cy="88.44" r="4.44"/>
  <circle class="cls-2" cx="134.65" cy="88.44" r="4.44"/>
</svg>